<?xml version="1.0" standalone="no"?>
<!DOCTYPE svg PUBLIC "-//W3C//DTD SVG 20010904//EN"
 "http://www.w3.org/TR/2001/REC-SVG-20010904/DTD/svg10.dtd">
<svg version="1.0" xmlns="http://www.w3.org/2000/svg"
 width="500.000000pt" height="500.000000pt" viewBox="0 0 500.000000 500.000000"
 preserveAspectRatio="xMidYMid meet">
<metadata>
Created by potrace 1.14, written by Peter Selinger 2001-2017
</metadata>
<g transform="translate(0.000000,500.000000) scale(0.100000,-0.100000)"
fill="#000000" stroke="none">
<path d="M1905 3536 c-102 -27 -201 -69 -272 -116 -66 -45 -187 -164 -228
-226 -71 -105 -125 -267 -125 -374 l0 -56 -62 -12 c-95 -18 -200 -72 -267
-139 -240 -240 -136 -624 198 -735 60 -20 92 -22 376 -27 l310 -6 3 -72 3 -72
127 -3 127 -3 3 -38 3 -38 127 3 127 3 3 62 3 62 -63 3 -63 3 0 135 0 135 130
0 130 0 3 -88 3 -88 367 4 c393 4 433 8 562 60 98 40 170 87 245 162 74 73
154 197 176 273 7 23 14 42 17 42 3 0 26 -22 53 -49 72 -74 145 -105 244 -105
66 0 90 5 137 28 70 33 129 90 165 158 25 47 28 64 28 148 0 89 -2 99 -34 158
-64 118 -161 176 -296 176 -66 0 -90 -4 -137 -26 -65 -30 -135 -96 -161 -150
l-18 -38 -658 0 -659 0 -13 -32 c-20 -48 -96 -126 -154 -156 -44 -24 -61 -27
-150 -27 -87 0 -106 3 -149 25 -63 32 -127 96 -157 157 -34 70 -38 188 -9 265
28 75 96 150 168 185 50 24 69 28 147 28 80 0 97 -3 148 -29 62 -32 111 -80
149 -145 l23 -41 593 0 593 0 -17 23 c-30 39 -122 111 -193 150 -170 94 -413
122 -617 71 -16 -4 -31 9 -72 63 -114 150 -283 259 -476 308 -135 34 -310 35
-441 1z m2343 -836 c52 -32 74 -75 70 -141 -13 -201 -308 -196 -308 6 0 93 62
155 155 155 32 0 62 -7 83 -20z m-2763 -375 l0 -80 -82 -3 -83 -3 0 86 0 86
83 -3 82 -3 0 -80z"/>
<path d="M2138 2940 c-96 -52 -112 -174 -33 -250 103 -100 274 -19 262 123
-10 113 -131 181 -229 127z"/>
<path d="M3767 1984 c-4 -4 -7 -63 -7 -131 l0 -123 125 0 126 0 -3 128 -3 127
-116 3 c-63 1 -118 -1 -122 -4z"/>
<path d="M3090 1590 l0 -131 128 3 127 3 3 128 3 127 -131 0 -130 0 0 -130z"/>
<path d="M3437 1573 c-10 -9 -8 -225 1 -241 7 -9 39 -12 128 -10 l119 3 3 128
3 127 -124 0 c-68 0 -127 -3 -130 -7z"/>
<path d="M1820 1351 c0 -89 3 -121 14 -130 9 -8 52 -11 127 -9 l114 3 3 128 3
127 -131 0 -130 0 0 -119z"/>
<path d="M2290 1240 l0 -131 128 3 127 3 3 128 3 127 -131 0 -130 0 0 -130z"/>
</g>
</svg>
