<?xml version="1.0" standalone="no"?>
<!DOCTYPE svg PUBLIC "-//W3C//DTD SVG 20010904//EN"
 "http://www.w3.org/TR/2001/REC-SVG-20010904/DTD/svg10.dtd">
<svg version="1.0" xmlns="http://www.w3.org/2000/svg"
 width="875.000000pt" height="875.000000pt" viewBox="0 0 875.000000 875.000000"
 preserveAspectRatio="xMidYMid meet">
<metadata>
Created by potrace 1.14, written by Peter Selinger 2001-2017
</metadata>
<g transform="translate(0.000000,875.000000) scale(0.100000,-0.100000)"
fill="#000000" stroke="none">
<path d="M2608 6195 c-3 -3 -50 -7 -213 -21 -57 -5 -81 -7 -177 -19 -125 -16
-146 -19 -238 -35 -30 -5 -73 -12 -95 -16 -162 -23 -470 -105 -629 -165 -258
-99 -506 -269 -638 -439 -82 -106 -156 -262 -192 -405 -14 -56 -17 -75 -31
-180 -11 -81 -6 -308 10 -405 3 -25 9 -58 11 -75 12 -79 59 -251 95 -349 162
-443 434 -726 844 -877 l100 -36 18 -49 c11 -27 21 -82 23 -121 5 -116 -27
-181 -119 -240 -21 -13 -44 -38 -52 -56 -31 -74 22 -159 99 -159 36 0 138 12
147 18 3 2 19 6 36 8 143 26 357 130 503 245 56 44 196 183 237 234 l31 39
123 3 c112 3 189 9 259 20 14 2 46 6 73 9 26 3 68 9 95 12 26 3 58 7 72 9 14
2 57 7 95 11 39 3 72 8 75 9 3 2 42 6 85 9 l80 6 57 -82 c62 -90 177 -216 273
-299 87 -75 297 -211 422 -273 121 -61 278 -126 303 -126 9 0 20 -4 26 -9 14
-13 265 -78 369 -96 231 -39 334 -49 557 -49 l187 -1 48 -55 c198 -227 505
-483 773 -644 159 -96 166 -99 184 -81 14 14 13 20 -5 53 -12 20 -25 42 -30
47 -25 32 -140 282 -174 380 -9 28 -21 59 -25 70 -9 22 -57 195 -65 235 -11
50 -25 123 -25 126 0 2 3 3 8 2 4 0 14 1 22 4 8 4 38 13 67 22 79 25 289 116
378 165 269 150 448 308 633 556 36 48 139 250 146 287 2 7 6 20 9 28 39 101
58 239 53 384 -5 143 -8 168 -31 258 -42 159 -142 355 -251 488 -75 92 -253
259 -329 309 -22 14 -42 29 -45 32 -14 17 -162 105 -260 154 -153 77 -276 124
-450 174 -41 12 -88 26 -105 31 -16 5 -68 16 -115 24 -47 9 -94 18 -105 20
-19 4 -49 7 -210 26 -38 4 -181 7 -318 6 -194 -1 -247 2 -247 12 0 41 -77 217
-126 286 -61 88 -215 207 -359 278 -188 93 -501 184 -767 223 -21 3 -53 7 -70
10 -57 9 -101 14 -173 20 -38 4 -83 9 -100 12 -32 5 -851 13 -857 8z"/>
</g>
</svg>
